<svg version="1.1" id="Layer_1" xmlns="http://www.w3.org/2000/svg" xmlns:xlink="http://www.w3.org/1999/xlink" x="0px" y="0px"
	 width="100%" viewBox="0 0 1080 174" enable-background="new 0 0 1080 174" xml:space="preserve">
<path fill="#020202" opacity="1.000000" stroke="none" 
	d="
M815.000000,175.000000 
	C543.333313,175.000000 272.166656,175.000000 1.000000,175.000000 
	C1.000000,117.000000 1.000000,59.000000 1.000000,1.000000 
	C361.000000,1.000000 721.000000,1.000000 1081.000000,1.000000 
	C1081.000000,59.000000 1081.000000,117.000000 1081.000000,175.000000 
	C992.500000,175.000000 904.000000,175.000000 815.000000,175.000000 
M191.971420,67.500000 
	C191.971420,79.614983 191.971420,91.729958 191.971420,104.088844 
	C199.220062,104.088844 206.127274,104.088844 213.524994,104.088844 
	C213.524994,86.794044 213.524994,69.722755 213.524994,52.651478 
	C213.832962,52.612354 214.140930,52.573235 214.448898,52.534115 
	C219.095367,69.720673 223.741821,86.907234 228.453796,104.336105 
	C233.827469,104.336105 238.976944,104.171265 244.109070,104.398399 
	C247.151505,104.533058 248.419556,103.554085 249.179810,100.494507 
	C252.740372,86.165611 256.587463,71.907715 260.367920,57.633900 
	C260.883514,55.687073 261.599915,53.793427 262.223358,51.875156 
	C262.625641,51.939861 263.027954,52.004570 263.430237,52.069275 
	C263.430237,69.375977 263.430237,86.682678 263.430237,104.084038 
	C271.010254,104.084038 277.922943,104.084038 284.573853,104.084038 
	C284.573853,75.271881 284.573853,46.715527 284.573853,17.784592 
	C274.293915,17.784592 264.652924,17.693485 255.019211,17.916840 
	C253.985779,17.940800 252.417755,19.629990 252.074066,20.827026 
	C248.915298,31.829163 245.991837,42.898617 242.956482,53.936543 
	C241.712891,58.458801 240.363205,62.951881 239.061798,67.458237 
	C234.297485,53.710716 230.417633,40.045925 226.599380,26.363943 
	C224.207184,17.791924 224.248779,17.780390 215.289612,17.780510 
	C207.547607,17.780615 199.805603,17.780531 191.971420,17.780531 
	C191.971420,34.543869 191.971420,50.521935 191.971420,67.500000 
M549.499695,104.332230 
	C554.993713,104.293716 560.501770,104.493874 565.979065,104.171501 
	C581.796570,103.240578 592.520935,92.304955 592.147461,77.804367 
	C591.942932,69.863594 587.738403,64.187416 582.272766,60.039825 
	C584.372498,56.456608 586.925598,53.413673 588.073303,49.910347 
	C592.675110,35.863350 584.699097,21.460346 569.570984,19.213558 
	C556.079529,17.209850 542.199097,17.825653 528.345825,17.279774 
	C528.345825,46.901684 528.345825,75.461327 528.345825,104.332237 
	C535.227417,104.332237 541.863647,104.332237 549.499695,104.332230 
M420.683807,38.520546 
	C417.676331,38.877361 414.668854,39.234180 411.661377,39.591000 
	C397.526581,34.577782 384.785614,36.832928 376.310242,46.944546 
	C366.919525,58.148209 365.962799,75.105682 374.054810,86.920555 
	C381.771545,98.187477 393.307281,100.461502 412.727142,94.167076 
	C412.378662,96.175941 412.437347,98.013924 411.734100,99.488487 
	C409.514496,104.142334 405.251343,106.631989 400.477539,106.570564 
	C392.672333,106.470123 384.880524,105.330078 377.122986,104.632179 
	C377.122986,110.134834 377.122986,116.730782 377.122986,124.720451 
	C386.562073,125.150032 395.848419,126.493362 404.976776,125.788948 
	C421.935577,124.480247 433.500671,113.010475 433.994720,97.023720 
	C434.585815,77.896149 434.127289,58.736076 434.097412,39.590111 
	C434.096985,39.333477 433.756073,39.077374 433.366364,38.528450 
	C429.587555,38.528450 425.610962,38.528450 420.683807,38.520546 
M655.593750,38.552265 
	C652.183716,39.188339 647.943237,36.507519 645.661377,41.155193 
	C631.736633,33.399750 617.045776,36.216431 606.572815,48.542053 
	C596.855652,59.978191 597.088196,82.182602 606.909424,94.599174 
	C615.842590,105.892921 632.713440,110.056755 645.864258,101.813538 
	C648.004761,104.713768 655.999878,105.463417 667.856689,103.866638 
	C667.856689,82.186058 667.856689,60.502293 667.856689,38.554607 
	C663.846191,38.554607 660.201660,38.554607 655.593750,38.552265 
M478.270477,36.814198 
	C463.436066,36.659779 452.195587,43.933620 446.980713,57.062149 
	C441.663116,70.449234 445.201843,88.642776 454.714294,97.466797 
	C463.618835,105.726883 477.650421,109.830566 489.501678,102.755180 
	C498.127014,105.616264 505.720764,103.785339 513.004395,104.248993 
	C513.004395,82.000778 513.004395,60.444359 513.004395,38.932388 
	C501.250397,37.502686 492.841919,38.276058 491.140839,40.528591 
	C487.046509,39.271542 483.108856,38.062603 478.270477,36.814198 
M307.643585,45.124790 
	C302.286835,49.958378 299.188568,56.008110 297.425476,62.973206 
	C293.537506,78.332314 300.061249,94.365456 313.506470,101.354858 
	C327.163116,108.454170 341.087006,107.217659 354.983765,102.090172 
	C355.901276,101.751633 356.927643,100.239563 356.966980,99.236633 
	C357.167358,94.125893 357.059479,89.003075 357.059479,83.447365 
	C352.204407,84.617020 347.936981,86.053032 343.559662,86.585320 
	C339.151947,87.121307 334.589874,87.165382 330.178619,86.675583 
	C325.802856,86.189735 321.747955,84.455002 319.330475,79.308632 
	C330.076660,79.308632 340.184265,79.293472 350.291840,79.312698 
	C361.446533,79.333916 361.565063,79.344681 361.284912,68.148468 
	C360.954895,54.960068 355.699219,44.211334 343.190796,39.044853 
	C330.797089,33.925743 318.737823,35.821041 307.643585,45.124790 
M777.829651,68.677460 
	C777.838928,70.842766 777.650024,73.030289 777.889832,75.169754 
	C779.383972,88.499886 786.054443,98.321304 798.469788,103.570206 
	C811.122131,108.919281 823.465088,107.434509 834.355896,99.161415 
	C846.801941,89.706879 850.906372,71.467133 844.586548,57.133804 
	C837.973694,42.135944 823.093384,34.324532 806.058655,36.908676 
	C791.100525,39.177807 779.685059,51.660851 777.829651,68.677460 
M886.579224,83.790619 
	C886.283447,89.812286 885.905701,95.832573 885.804382,101.857498 
	C885.792847,102.545570 887.237183,103.698044 888.163879,103.895157 
	C899.789734,106.368141 911.447632,108.028870 922.970703,103.419662 
	C929.437683,100.832878 934.747620,96.758766 936.160400,89.619247 
	C939.038086,75.076866 932.926270,67.730186 920.010193,63.854652 
	C916.509644,62.804276 912.901794,62.049652 909.509705,60.730991 
	C908.226379,60.232075 907.413330,58.523403 906.385925,57.366119 
	C907.649963,56.414371 908.870544,54.731300 910.186462,54.653126 
	C913.621094,54.449089 917.180237,54.556362 920.536194,55.265636 
	C924.685242,56.142521 928.679443,57.751976 933.265747,59.212120 
	C933.265747,53.543880 933.095337,48.276070 933.332092,43.026627 
	C933.465942,40.059795 932.241821,38.935032 929.547424,38.292664 
	C918.938782,35.763500 908.492249,35.536530 898.200684,39.732422 
	C888.763855,43.579845 884.272705,50.496735 884.697449,60.708679 
	C885.057861,69.372871 890.154297,75.279289 899.834473,78.142097 
	C903.653809,79.271637 907.605774,80.025322 911.308228,81.443718 
	C912.908325,82.056709 914.029480,83.920006 915.368225,85.215340 
	C913.798523,86.237122 912.347961,87.663139 910.626587,88.170784 
	C908.782654,88.714546 906.590576,88.802338 904.713501,88.374207 
	C898.899597,87.048172 893.163208,85.382278 886.579224,83.790619 
M760.071716,73.502609 
	C760.071716,68.265228 760.071716,63.027847 760.071716,57.448860 
	C764.370850,57.448860 767.985779,57.448860 771.823059,57.448860 
	C771.823059,51.037533 771.823059,44.997372 771.823059,38.428093 
	C767.785767,38.428093 764.046326,38.428093 759.926392,38.428093 
	C759.926392,32.326275 759.926392,26.747404 759.926392,21.012367 
	C752.751465,21.012367 745.986084,21.012367 738.646118,21.012367 
	C738.646118,26.774471 738.646118,32.351280 738.646118,38.546516 
	C734.840515,38.546516 731.603516,38.546516 728.722656,38.546516 
	C728.722656,45.247055 728.722656,51.306038 728.722656,57.764786 
	C732.183838,57.764786 735.112854,57.764786 738.551392,57.764786 
	C738.551392,73.409851 738.551392,88.634499 738.551392,104.094002 
	C745.960205,104.094002 752.849976,104.094002 760.067749,104.094002 
	C760.067749,94.073448 760.067749,84.287415 760.071716,73.502609 
M703.043213,80.505798 
	C703.058655,76.675529 702.997009,72.843056 703.106750,69.015495 
	C703.291626,62.564461 706.509583,58.803871 712.960388,57.951015 
	C716.004395,57.548565 719.145691,57.881989 722.058838,57.881989 
	C722.058838,50.590027 722.058838,43.855118 722.058838,35.975124 
	C715.533630,37.512161 709.657104,38.896408 703.506409,40.345226 
	C701.886719,38.237541 691.341492,37.349220 681.976562,39.052635 
	C681.976562,60.751026 681.976562,82.450760 681.976562,104.097641 
	C689.123108,104.097641 695.887878,104.097641 703.043152,104.097641 
	C703.043152,96.400620 703.043152,88.952103 703.043213,80.505798 
M856.509216,23.590572 
	C856.999329,33.612713 857.489441,43.634850 857.971008,53.482819 
	C864.354675,53.482819 870.085632,53.482819 876.173096,53.482819 
	C876.789612,41.426853 877.385437,29.774555 877.986694,18.017483 
	C870.659485,18.017483 863.761780,18.017483 856.502747,18.017483 
	C856.502747,19.734585 856.502747,21.193426 856.509216,23.590572 
M453.091400,158.310883 
	C455.077911,165.084320 459.836761,159.202850 463.431244,161.794510 
	C463.431244,157.062836 463.431244,153.636139 463.431244,150.108383 
	C465.795074,149.905365 467.779480,149.825348 469.736511,149.550339 
	C476.235291,148.637039 480.546417,143.991028 480.991730,137.520386 
	C481.421112,131.280548 477.517639,125.698517 470.949310,124.635216 
	C465.153015,123.696884 459.180389,123.847885 453.092224,123.507050 
	C453.092224,135.377930 453.092224,146.359940 453.091400,158.310883 
M672.369324,155.719879 
	C676.401001,148.453491 675.722961,140.934433 670.589661,135.985718 
	C665.751953,131.321960 657.314514,130.502243 651.630127,134.314392 
	C646.431519,137.800797 644.405518,142.833878 645.105530,148.987152 
	C645.771729,154.843201 649.050049,158.988022 654.389282,160.968552 
	C661.106506,163.460205 667.164917,162.006760 672.369324,155.719879 
M609.338135,154.535934 
	C612.632080,146.646790 611.339844,139.415878 605.876160,135.164398 
	C600.372498,130.881821 592.164917,130.877213 586.933716,134.965714 
	C581.511658,139.203369 580.476929,144.941147 581.825562,151.057678 
	C583.152771,157.076630 587.346558,160.758423 593.510071,161.761032 
	C599.968018,162.811554 605.246399,160.795288 609.338135,154.535934 
M492.669769,161.200989 
	C500.194733,163.207596 506.570587,161.121323 510.241302,155.451309 
	C513.694153,150.117813 513.303955,141.769409 509.290771,137.237198 
	C504.882782,132.259048 499.418121,130.722015 493.064026,132.676941 
	C486.921722,134.566742 483.182465,139.187668 482.783112,145.380020 
	C482.317810,152.594879 485.040405,158.009888 492.669769,161.200989 
M576.991821,129.293945 
	C579.291260,129.715454 580.727783,128.951996 580.102539,126.444633 
	C579.607239,124.458633 579.107666,121.423218 577.779175,120.877953 
	C572.130981,118.559685 565.317200,122.412888 563.289673,128.137100 
	C562.520508,130.308823 560.962463,132.201141 559.763977,134.220810 
	C559.111816,134.122711 558.459656,134.024628 557.807434,133.926529 
	C558.621521,136.347763 559.313721,138.819916 560.296021,141.170853 
	C560.871887,142.549133 562.557678,143.700516 562.626160,145.012360 
	C562.901306,150.280151 562.739990,155.570740 562.739990,160.926880 
	C566.171570,160.926880 569.084778,160.926880 572.388855,160.926880 
	C572.388855,154.362732 572.388855,148.085373 572.388855,141.899017 
	C579.241821,140.486740 579.241821,140.486740 578.423584,132.998810 
	C576.431030,132.751221 574.434509,132.503143 572.438049,132.255066 
	C572.365601,131.802658 572.293213,131.350266 572.220825,130.897873 
	C573.547546,130.352127 574.874268,129.806381 576.991821,129.293945 
M536.886108,138.284546 
	C538.244141,139.750549 539.602173,141.216553 541.840210,143.632507 
	C541.840210,148.551270 541.840210,154.774033 541.840210,160.926117 
	C545.086426,160.926117 547.831787,160.926117 550.919067,160.926117 
	C550.919067,154.374298 550.919067,148.106689 550.919067,141.885986 
	C552.770813,141.346863 554.280029,140.907486 555.868713,140.444977 
	C555.721313,137.833450 555.591919,135.540649 555.455078,133.115204 
	C553.924988,132.809891 552.522583,132.530029 550.992859,132.224777 
	C550.883728,129.927032 550.783936,127.825531 550.678467,125.605637 
	C547.604858,125.605637 544.859131,125.605637 541.849243,125.605637 
	C541.684082,127.927635 541.535583,130.015579 541.373779,132.290436 
	C539.809998,132.581406 538.431152,132.837952 536.884399,133.125748 
	C536.884399,134.765427 536.884399,136.079102 536.886108,138.284546 
M624.907593,156.376465 
	C624.907593,144.676941 624.907593,132.977417 624.907593,121.487152 
	C621.353333,121.487152 618.611389,121.487152 615.978149,121.487152 
	C615.978149,134.867325 615.978149,147.904739 615.978149,160.962341 
	C619.032837,160.962341 621.774597,160.962341 624.907654,160.962341 
	C624.907654,159.599258 624.907654,158.473633 624.907593,156.376465 
M516.776917,137.516525 
	C516.776917,145.272110 516.776917,153.027679 516.776917,160.968231 
	C520.069092,160.968231 522.948608,160.968231 526.214539,160.968231 
	C526.214539,157.600708 526.214783,154.485931 526.214539,151.371140 
	C526.213928,142.476883 526.213806,142.476883 534.806458,140.430756 
	C534.660522,137.755508 534.511780,135.028824 534.383301,132.673401 
	C528.354492,132.673401 522.751465,132.673401 516.771362,132.673401 
	C516.771362,134.279099 516.771362,135.399124 516.776917,137.516525 
M631.555786,160.561630 
	C634.523682,160.832794 637.491516,161.103958 640.596802,161.387680 
	C640.596802,155.831421 640.596802,151.200226 640.596802,146.569031 
	C640.596802,142.015640 640.596802,137.462250 640.596802,133.015259 
	C637.313171,133.015259 634.438049,133.015259 631.404480,133.015259 
	C631.404480,142.173080 631.404480,150.943115 631.555786,160.561630 
M630.660950,126.556854 
	C632.880005,129.766876 636.113770,130.932587 639.044617,128.516998 
	C640.575439,127.255272 641.599976,123.493286 640.810181,121.831451 
	C640.017883,120.164322 636.569824,118.701408 634.492065,118.940804 
	C631.017151,119.341194 629.333313,122.104362 630.660950,126.556854 
z"/>
<path fill="#FAFAFA" opacity="1.000000" stroke="none" 
	d="
M191.971420,67.000000 
	C191.971420,50.521935 191.971420,34.543869 191.971420,17.780531 
	C199.805603,17.780531 207.547607,17.780615 215.289612,17.780510 
	C224.248779,17.780390 224.207184,17.791924 226.599380,26.363943 
	C230.417633,40.045925 234.297485,53.710716 239.061798,67.458237 
	C240.363205,62.951881 241.712891,58.458801 242.956482,53.936543 
	C245.991837,42.898617 248.915298,31.829163 252.074066,20.827026 
	C252.417755,19.629990 253.985779,17.940800 255.019211,17.916840 
	C264.652924,17.693485 274.293915,17.784592 284.573853,17.784592 
	C284.573853,46.715527 284.573853,75.271881 284.573853,104.084038 
	C277.922943,104.084038 271.010254,104.084038 263.430237,104.084038 
	C263.430237,86.682678 263.430237,69.375977 263.430237,52.069275 
	C263.027954,52.004570 262.625641,51.939861 262.223358,51.875156 
	C261.599915,53.793427 260.883514,55.687073 260.367920,57.633900 
	C256.587463,71.907715 252.740372,86.165611 249.179810,100.494507 
	C248.419556,103.554085 247.151505,104.533058 244.109070,104.398399 
	C238.976944,104.171265 233.827469,104.336105 228.453796,104.336105 
	C223.741821,86.907234 219.095367,69.720673 214.448898,52.534115 
	C214.140930,52.573235 213.832962,52.612354 213.524994,52.651478 
	C213.524994,69.722755 213.524994,86.794044 213.524994,104.088844 
	C206.127274,104.088844 199.220062,104.088844 191.971420,104.088844 
	C191.971420,91.729958 191.971420,79.614983 191.971420,67.000000 
z"/>
<path fill="#FCFCFC" opacity="1.000000" stroke="none" 
	d="
M548.999756,104.332230 
	C541.863647,104.332237 535.227417,104.332237 528.345825,104.332237 
	C528.345825,75.461327 528.345825,46.901684 528.345825,17.279774 
	C542.199097,17.825653 556.079529,17.209850 569.570984,19.213558 
	C584.699097,21.460346 592.675110,35.863350 588.073303,49.910347 
	C586.925598,53.413673 584.372498,56.456608 582.272766,60.039825 
	C587.738403,64.187416 591.942932,69.863594 592.147461,77.804367 
	C592.520935,92.304955 581.796570,103.240578 565.979065,104.171501 
	C560.501770,104.493874 554.993713,104.293716 548.999756,104.332230 
M568.496460,73.084671 
	C563.770508,66.438332 556.931702,70.318672 550.837036,69.001541 
	C550.837036,74.592125 550.837036,79.596413 550.837036,84.788521 
	C554.480896,84.788521 557.646118,84.933914 560.793457,84.758728 
	C567.674133,84.375717 570.377869,80.613144 568.496460,73.084671 
M554.632080,52.090080 
	C556.132019,52.086975 557.638733,52.175507 559.130615,52.064072 
	C564.166077,51.687943 566.922424,49.012627 566.830688,44.689659 
	C566.740051,40.419086 563.819946,37.682278 558.970459,37.322948 
	C550.249207,36.676727 550.247925,36.676735 550.361938,45.659718 
	C550.378845,46.992821 549.998047,48.546360 550.555786,49.597580 
	C551.131592,50.682831 552.628235,51.279514 554.632080,52.090080 
z"/>
<path fill="#FAFAFA" opacity="1.000000" stroke="none" 
	d="
M421.159088,38.524498 
	C425.610962,38.528450 429.587555,38.528450 433.366364,38.528450 
	C433.756073,39.077374 434.096985,39.333477 434.097412,39.590111 
	C434.127289,58.736076 434.585815,77.896149 433.994720,97.023720 
	C433.500671,113.010475 421.935577,124.480247 404.976776,125.788948 
	C395.848419,126.493362 386.562073,125.150032 377.122986,124.720451 
	C377.122986,116.730782 377.122986,110.134834 377.122986,104.632179 
	C384.880524,105.330078 392.672333,106.470123 400.477539,106.570564 
	C405.251343,106.631989 409.514496,104.142334 411.734100,99.488487 
	C412.437347,98.013924 412.378662,96.175941 412.727142,94.167076 
	C393.307281,100.461502 381.771545,98.187477 374.054810,86.920555 
	C365.962799,75.105682 366.919525,58.148209 376.310242,46.944546 
	C384.785614,36.832928 397.526581,34.577782 411.661377,39.591000 
	C414.668854,39.234180 417.676331,38.877361 421.159088,38.524498 
M396.909576,78.841476 
	C398.363861,79.129471 399.810059,79.611000 401.273804,79.671974 
	C407.638031,79.937057 412.183533,76.018745 413.255615,69.488846 
	C414.264801,63.342350 410.766174,57.783939 404.847137,56.129860 
	C399.015503,54.500198 392.982574,57.181858 390.725922,62.406822 
	C388.083466,68.524986 390.169312,74.733231 396.909576,78.841476 
z"/>
<path fill="#FBFBFB" opacity="1.000000" stroke="none" 
	d="
M656.075439,38.553436 
	C660.201660,38.554607 663.846191,38.554607 667.856689,38.554607 
	C667.856689,60.502293 667.856689,82.186058 667.856689,103.866638 
	C655.999878,105.463417 648.004761,104.713768 645.864258,101.813538 
	C632.713440,110.056755 615.842590,105.892921 606.909424,94.599174 
	C597.088196,82.182602 596.855652,59.978191 606.572815,48.542053 
	C617.045776,36.216431 631.736633,33.399750 645.661377,41.155193 
	C647.943237,36.507519 652.183716,39.188339 656.075439,38.553436 
M634.320740,55.463821 
	C620.540405,55.379055 617.507263,71.512970 622.665344,80.878052 
	C626.845886,88.468452 637.712830,89.624863 643.345642,83.039490 
	C651.291809,73.749687 646.863464,58.992287 634.320740,55.463821 
z"/>
<path fill="#FAFAFA" opacity="1.000000" stroke="none" 
	d="
M478.720856,36.833931 
	C483.108856,38.062603 487.046509,39.271542 491.140839,40.528591 
	C492.841919,38.276058 501.250397,37.502686 513.004395,38.932388 
	C513.004395,60.444359 513.004395,82.000778 513.004395,104.248993 
	C505.720764,103.785339 498.127014,105.616264 489.501678,102.755180 
	C477.650421,109.830566 463.618835,105.726883 454.714294,97.466797 
	C445.201843,88.642776 441.663116,70.449234 446.980713,57.062149 
	C452.195587,43.933620 463.436066,36.659779 478.720856,36.833931 
M469.848907,83.655174 
	C478.117065,89.764137 487.362549,87.975609 490.848175,79.303116 
	C493.298615,73.206215 493.179626,66.973114 489.619568,61.198181 
	C487.023102,56.986378 482.858673,55.291553 478.155792,55.575428 
	C473.190704,55.875126 469.148834,58.331554 467.368988,63.152267 
	C464.835785,70.013481 464.835297,76.805679 469.848907,83.655174 
z"/>
<path fill="#FBFBFB" opacity="1.000000" stroke="none" 
	d="
M307.912048,44.886898 
	C318.737823,35.821041 330.797089,33.925743 343.190796,39.044853 
	C355.699219,44.211334 360.954895,54.960068 361.284912,68.148468 
	C361.565063,79.344681 361.446533,79.333916 350.291840,79.312698 
	C340.184265,79.293472 330.076660,79.308632 319.330475,79.308632 
	C321.747955,84.455002 325.802856,86.189735 330.178619,86.675583 
	C334.589874,87.165382 339.151947,87.121307 343.559662,86.585320 
	C347.936981,86.053032 352.204407,84.617020 357.059479,83.447365 
	C357.059479,89.003075 357.167358,94.125893 356.966980,99.236633 
	C356.927643,100.239563 355.901276,101.751633 354.983765,102.090172 
	C341.087006,107.217659 327.163116,108.454170 313.506470,101.354858 
	C300.061249,94.365456 293.537506,78.332314 297.425476,62.973206 
	C299.188568,56.008110 302.286835,49.958378 307.912048,44.886898 
M325.760315,63.668129 
	C330.761475,63.668129 335.762634,63.668129 341.422821,63.668129 
	C338.660492,57.824215 334.911346,55.268276 329.887146,55.522057 
	C325.119781,55.762867 321.088806,57.802193 319.124786,63.379440 
	C321.332794,63.485161 323.093933,63.569485 325.760315,63.668129 
z"/>
<path fill="#FAFAFA" opacity="1.000000" stroke="none" 
	d="
M777.842773,68.213226 
	C779.685059,51.660851 791.100525,39.177807 806.058655,36.908676 
	C823.093384,34.324532 837.973694,42.135944 844.586548,57.133804 
	C850.906372,71.467133 846.801941,89.706879 834.355896,99.161415 
	C823.465088,107.434509 811.122131,108.919281 798.469788,103.570206 
	C786.054443,98.321304 779.383972,88.499886 777.889832,75.169754 
	C777.650024,73.030289 777.838928,70.842766 777.842773,68.213226 
M825.927124,71.487251 
	C826.113525,64.750328 823.864441,59.320274 817.307251,56.594772 
	C810.886108,53.925777 803.978943,56.724957 800.875854,62.963814 
	C797.016907,70.722397 799.135071,80.989059 805.421997,84.998550 
	C814.927124,91.060471 825.226624,84.711739 825.927124,71.487251 
z"/>
<path fill="#F9F9F9" opacity="1.000000" stroke="none" 
	d="
M886.987976,83.819458 
	C893.163208,85.382278 898.899597,87.048172 904.713501,88.374207 
	C906.590576,88.802338 908.782654,88.714546 910.626587,88.170784 
	C912.347961,87.663139 913.798523,86.237122 915.368225,85.215332 
	C914.029480,83.920006 912.908325,82.056709 911.308228,81.443718 
	C907.605774,80.025322 903.653809,79.271637 899.834473,78.142097 
	C890.154297,75.279289 885.057861,69.372871 884.697449,60.708679 
	C884.272705,50.496735 888.763855,43.579845 898.200684,39.732422 
	C908.492249,35.536530 918.938782,35.763500 929.547424,38.292664 
	C932.241821,38.935032 933.465942,40.059795 933.332092,43.026627 
	C933.095337,48.276070 933.265747,53.543880 933.265747,59.212120 
	C928.679443,57.751976 924.685242,56.142521 920.536194,55.265636 
	C917.180237,54.556362 913.621094,54.449089 910.186462,54.653126 
	C908.870544,54.731300 907.649963,56.414371 906.385864,57.366146 
	C907.413330,58.523403 908.226379,60.232075 909.509705,60.730991 
	C912.901794,62.049652 916.509644,62.804276 920.010193,63.854652 
	C932.926270,67.730186 939.038086,75.076866 936.160400,89.619247 
	C934.747620,96.758766 929.437683,100.832878 922.970703,103.419662 
	C911.447632,108.028870 899.789734,106.368141 888.163879,103.895157 
	C887.237183,103.698044 885.792847,102.545570 885.804382,101.857498 
	C885.905701,95.832573 886.283447,89.812286 886.987976,83.819458 
z"/>
<path fill="#FAFAFA" opacity="1.000000" stroke="none" 
	d="
M760.069702,74.001999 
	C760.067749,84.287415 760.067749,94.073448 760.067749,104.094002 
	C752.849976,104.094002 745.960205,104.094002 738.551392,104.094002 
	C738.551392,88.634499 738.551392,73.409851 738.551392,57.764786 
	C735.112854,57.764786 732.183838,57.764786 728.722656,57.764786 
	C728.722656,51.306038 728.722656,45.247055 728.722656,38.546516 
	C731.603516,38.546516 734.840515,38.546516 738.646118,38.546516 
	C738.646118,32.351280 738.646118,26.774471 738.646118,21.012367 
	C745.986084,21.012367 752.751465,21.012367 759.926392,21.012367 
	C759.926392,26.747404 759.926392,32.326275 759.926392,38.428093 
	C764.046326,38.428093 767.785767,38.428093 771.823059,38.428093 
	C771.823059,44.997372 771.823059,51.037533 771.823059,57.448860 
	C767.985779,57.448860 764.370850,57.448860 760.071716,57.448860 
	C760.071716,63.027847 760.071716,68.265228 760.069702,74.001999 
z"/>
<path fill="#FCFCFC" opacity="1.000000" stroke="none" 
	d="
M703.043213,81.004692 
	C703.043152,88.952103 703.043152,96.400620 703.043152,104.097641 
	C695.887878,104.097641 689.123108,104.097641 681.976562,104.097641 
	C681.976562,82.450760 681.976562,60.751026 681.976562,39.052635 
	C691.341492,37.349220 701.886719,38.237541 703.506409,40.345226 
	C709.657104,38.896408 715.533630,37.512161 722.058838,35.975124 
	C722.058838,43.855118 722.058838,50.590027 722.058838,57.881989 
	C719.145691,57.881989 716.004395,57.548565 712.960388,57.951015 
	C706.509583,58.803871 703.291626,62.564461 703.106750,69.015495 
	C702.997009,72.843056 703.058655,76.675529 703.043213,81.004692 
z"/>
<path fill="#F8F8F8" opacity="1.000000" stroke="none" 
	d="
M856.505981,23.121422 
	C856.502747,21.193426 856.502747,19.734585 856.502747,18.017483 
	C863.761780,18.017483 870.659485,18.017483 877.986694,18.017483 
	C877.385437,29.774555 876.789612,41.426853 876.173096,53.482819 
	C870.085632,53.482819 864.354675,53.482819 857.971008,53.482819 
	C857.489441,43.634850 856.999329,33.612713 856.505981,23.121422 
z"/>
<path fill="#F4F4F4" opacity="1.000000" stroke="none" 
	d="
M453.091797,157.826416 
	C453.092224,146.359940 453.092224,135.377930 453.092224,123.507050 
	C459.180389,123.847885 465.153015,123.696884 470.949310,124.635216 
	C477.517639,125.698517 481.421112,131.280548 480.991730,137.520386 
	C480.546417,143.991028 476.235291,148.637039 469.736511,149.550339 
	C467.779480,149.825348 465.795074,149.905365 463.431244,150.108383 
	C463.431244,153.636139 463.431244,157.062836 463.431244,161.794510 
	C459.836761,159.202850 455.077911,165.084320 453.091797,157.826416 
M463.920074,141.025970 
	C466.106415,140.425491 468.504425,140.172470 470.365753,139.038513 
	C471.028870,138.634552 471.000641,135.278214 470.221344,134.695114 
	C468.494965,133.403397 466.093018,133.014664 463.386749,132.051300 
	C463.386749,135.632050 463.386749,138.034729 463.920074,141.025970 
z"/>
<path fill="#F2F2F2" opacity="1.000000" stroke="none" 
	d="
M672.125671,156.002563 
	C667.164917,162.006760 661.106506,163.460205 654.389282,160.968552 
	C649.050049,158.988022 645.771729,154.843201 645.105530,148.987152 
	C644.405518,142.833878 646.431519,137.800797 651.630127,134.314392 
	C657.314514,130.502243 665.751953,131.321960 670.589661,135.985718 
	C675.722961,140.934433 676.401001,148.453491 672.125671,156.002563 
M665.731750,147.376114 
	C664.980713,142.365280 662.648193,139.908630 659.191162,140.487503 
	C655.805664,141.054367 653.137085,144.877701 654.520386,148.417389 
	C655.335083,150.502121 657.672180,152.948990 659.715088,153.379471 
	C663.044006,154.080933 665.019836,151.431763 665.731750,147.376114 
z"/>
<path fill="#F4F4F4" opacity="1.000000" stroke="none" 
	d="
M609.136108,154.864380 
	C605.246399,160.795288 599.968018,162.811554 593.510071,161.761032 
	C587.346558,160.758423 583.152771,157.076630 581.825562,151.057678 
	C580.476929,144.941147 581.511658,139.203369 586.933716,134.965714 
	C592.164917,130.877213 600.372498,130.881821 605.876160,135.164398 
	C611.339844,139.415878 612.632080,146.646790 609.136108,154.864380 
M598.565613,141.015717 
	C595.240356,139.635773 592.087219,140.511948 591.365662,143.813004 
	C590.792786,146.433838 591.668823,149.868484 593.106445,152.198410 
	C593.721680,153.195511 598.825012,153.115234 599.395020,152.110077 
	C600.744995,149.729721 600.739136,146.513596 600.964111,143.610779 
	C601.017883,142.916656 599.830627,142.126358 598.565613,141.015717 
z"/>
<path fill="#F4F4F4" opacity="1.000000" stroke="none" 
	d="
M492.287598,161.084106 
	C485.040405,158.009888 482.317810,152.594879 482.783112,145.380020 
	C483.182465,139.187668 486.921722,134.566742 493.064026,132.676941 
	C499.418121,130.722015 504.882782,132.259048 509.290771,137.237198 
	C513.303955,141.769409 513.694153,150.117813 510.241302,155.451309 
	C506.570587,161.121323 500.194733,163.207596 492.287598,161.084106 
M498.325806,140.367126 
	C497.525848,140.524780 496.661835,140.539398 495.936768,140.864212 
	C492.278625,142.502945 490.940857,146.112625 492.640442,149.889313 
	C494.059448,153.042496 496.486481,154.424561 499.837219,153.075348 
	C502.991333,151.805328 504.466064,147.006470 502.603760,143.688812 
	C501.877777,142.395569 500.261200,141.602280 498.325806,140.367126 
z"/>
<path fill="#F3F3F3" opacity="1.000000" stroke="none" 
	d="
M576.596436,129.277283 
	C574.874268,129.806381 573.547546,130.352127 572.220825,130.897873 
	C572.293213,131.350266 572.365601,131.802658 572.438049,132.255066 
	C574.434509,132.503143 576.431030,132.751221 578.423584,132.998810 
	C579.241821,140.486740 579.241821,140.486740 572.388855,141.899017 
	C572.388855,148.085373 572.388855,154.362732 572.388855,160.926880 
	C569.084778,160.926880 566.171570,160.926880 562.739990,160.926880 
	C562.739990,155.570740 562.901306,150.280151 562.626160,145.012360 
	C562.557678,143.700516 560.871887,142.549133 560.296021,141.170853 
	C559.313721,138.819916 558.621521,136.347763 557.807434,133.926529 
	C558.459656,134.024628 559.111816,134.122711 559.763977,134.220810 
	C560.962463,132.201141 562.520508,130.308823 563.289673,128.137100 
	C565.317200,122.412888 572.130981,118.559685 577.779175,120.877953 
	C579.107666,121.423218 579.607239,124.458633 580.102539,126.444633 
	C580.727783,128.951996 579.291260,129.715454 576.596436,129.277283 
z"/>
<path fill="#F3F3F3" opacity="1.000000" stroke="none" 
	d="
M536.885254,137.838669 
	C536.884399,136.079102 536.884399,134.765427 536.884399,133.125748 
	C538.431152,132.837952 539.809998,132.581406 541.373779,132.290436 
	C541.535583,130.015579 541.684082,127.927635 541.849243,125.605637 
	C544.859131,125.605637 547.604858,125.605637 550.678467,125.605637 
	C550.783936,127.825531 550.883728,129.927032 550.992859,132.224777 
	C552.522583,132.530029 553.924988,132.809891 555.455078,133.115204 
	C555.591919,135.540649 555.721313,137.833450 555.868713,140.444977 
	C554.280029,140.907486 552.770813,141.346863 550.919067,141.885986 
	C550.919067,148.106689 550.919067,154.374298 550.919067,160.926117 
	C547.831787,160.926117 545.086426,160.926117 541.840210,160.926117 
	C541.840210,154.774033 541.840210,148.551270 541.840210,143.632507 
	C539.602173,141.216553 538.244141,139.750549 536.885254,137.838669 
z"/>
<path fill="#F9F9F9" opacity="1.000000" stroke="none" 
	d="
M624.907593,156.862228 
	C624.907654,158.473633 624.907654,159.599258 624.907654,160.962341 
	C621.774597,160.962341 619.032837,160.962341 615.978149,160.962341 
	C615.978149,147.904739 615.978149,134.867325 615.978149,121.487152 
	C618.611389,121.487152 621.353333,121.487152 624.907593,121.487152 
	C624.907593,132.977417 624.907593,144.676941 624.907593,156.862228 
z"/>
<path fill="#F6F6F6" opacity="1.000000" stroke="none" 
	d="
M516.774170,137.017822 
	C516.771362,135.399124 516.771362,134.279099 516.771362,132.673401 
	C522.751465,132.673401 528.354492,132.673401 534.383301,132.673401 
	C534.511780,135.028824 534.660522,137.755508 534.806458,140.430756 
	C526.213806,142.476883 526.213928,142.476883 526.214539,151.371140 
	C526.214783,154.485931 526.214539,157.600708 526.214539,160.968231 
	C522.948608,160.968231 520.069092,160.968231 516.776917,160.968231 
	C516.776917,153.027679 516.776917,145.272110 516.774170,137.017822 
z"/>
<path fill="#E6E6E6" opacity="1.000000" stroke="none" 
	d="
M631.480103,160.137390 
	C631.404480,150.943115 631.404480,142.173080 631.404480,133.015259 
	C634.438049,133.015259 637.313171,133.015259 640.596802,133.015259 
	C640.596802,137.462250 640.596802,142.015640 640.596802,146.569031 
	C640.596802,151.200226 640.596802,155.831421 640.596802,161.387680 
	C637.491516,161.103958 634.523682,160.832794 631.480103,160.137390 
z"/>
<path fill="#ECECEC" opacity="1.000000" stroke="none" 
	d="
M630.503296,126.209518 
	C629.333313,122.104362 631.017151,119.341194 634.492065,118.940804 
	C636.569824,118.701408 640.017883,120.164322 640.810181,121.831451 
	C641.599976,123.493286 640.575439,127.255272 639.044617,128.516998 
	C636.113770,130.932587 632.880005,129.766876 630.503296,126.209518 
z"/>
<path fill="#111111" opacity="1.000000" stroke="none" 
	d="
M568.696289,73.407059 
	C570.377869,80.613144 567.674133,84.375717 560.793457,84.758728 
	C557.646118,84.933914 554.480896,84.788521 550.837036,84.788521 
	C550.837036,79.596413 550.837036,74.592125 550.837036,69.001541 
	C556.931702,70.318672 563.770508,66.438332 568.696289,73.407059 
z"/>
<path fill="#111111" opacity="1.000000" stroke="none" 
	d="
M554.177063,52.090008 
	C552.628235,51.279514 551.131592,50.682831 550.555786,49.597580 
	C549.998047,48.546360 550.378845,46.992821 550.361938,45.659718 
	C550.247925,36.676735 550.249207,36.676727 558.970459,37.322948 
	C563.819946,37.682278 566.740051,40.419086 566.830688,44.689659 
	C566.922424,49.012627 564.166077,51.687943 559.130615,52.064072 
	C557.638733,52.175507 556.132019,52.086975 554.177063,52.090008 
z"/>
<path fill="#070707" opacity="1.000000" stroke="none" 
	d="
M396.540314,78.727554 
	C390.169312,74.733231 388.083466,68.524986 390.725922,62.406822 
	C392.982574,57.181858 399.015503,54.500198 404.847137,56.129860 
	C410.766174,57.783939 414.264801,63.342350 413.255615,69.488846 
	C412.183533,76.018745 407.638031,79.937057 401.273804,79.671974 
	C399.810059,79.611000 398.363861,79.129471 396.540314,78.727554 
z"/>
<path fill="#070707" opacity="1.000000" stroke="none" 
	d="
M634.703125,55.488186 
	C646.863464,58.992287 651.291809,73.749687 643.345642,83.039490 
	C637.712830,89.624863 626.845886,88.468452 622.665344,80.878052 
	C617.507263,71.512970 620.540405,55.379055 634.703125,55.488186 
z"/>
<path fill="#050505" opacity="1.000000" stroke="none" 
	d="
M469.624573,83.344528 
	C464.835297,76.805679 464.835785,70.013481 467.368988,63.152267 
	C469.148834,58.331554 473.190704,55.875126 478.155792,55.575428 
	C482.858673,55.291553 487.023102,56.986378 489.619568,61.198181 
	C493.179626,66.973114 493.298615,73.206215 490.848175,79.303116 
	C487.362549,87.975609 478.117065,89.764137 469.624573,83.344528 
z"/>
<path fill="#1F1F1F" opacity="1.000000" stroke="none" 
	d="
M325.307709,63.660969 
	C323.093933,63.569485 321.332794,63.485161 319.124786,63.379440 
	C321.088806,57.802193 325.119781,55.762867 329.887146,55.522057 
	C334.911346,55.268276 338.660492,57.824215 341.422821,63.668129 
	C335.762634,63.668129 330.761475,63.668129 325.307709,63.660969 
z"/>
<path fill="#070707" opacity="1.000000" stroke="none" 
	d="
M825.923828,71.925133 
	C825.226624,84.711739 814.927124,91.060471 805.421997,84.998550 
	C799.135071,80.989059 797.016907,70.722397 800.875854,62.963814 
	C803.978943,56.724957 810.886108,53.925777 817.307251,56.594772 
	C823.864441,59.320274 826.113525,64.750328 825.923828,71.925133 
z"/>
<path fill="#1F1F1F" opacity="1.000000" stroke="none" 
	d="
M463.653412,140.731689 
	C463.386749,138.034729 463.386749,135.632050 463.386749,132.051300 
	C466.093018,133.014664 468.494965,133.403397 470.221344,134.695114 
	C471.000641,135.278214 471.028870,138.634552 470.365753,139.038513 
	C468.504425,140.172470 466.106415,140.425491 463.653412,140.731689 
z"/>
<path fill="#111111" opacity="1.000000" stroke="none" 
	d="
M665.706360,147.752609 
	C665.019836,151.431763 663.044006,154.080933 659.715088,153.379471 
	C657.672180,152.948990 655.335083,150.502121 654.520386,148.417389 
	C653.137085,144.877701 655.805664,141.054367 659.191162,140.487503 
	C662.648193,139.908630 664.980713,142.365280 665.706360,147.752609 
z"/>
<path fill="#111111" opacity="1.000000" stroke="none" 
	d="
M598.889893,141.197998 
	C599.830627,142.126358 601.017883,142.916656 600.964111,143.610779 
	C600.739136,146.513596 600.744995,149.729721 599.395020,152.110077 
	C598.825012,153.115234 593.721680,153.195511 593.106445,152.198410 
	C591.668823,149.868484 590.792786,146.433838 591.365662,143.813004 
	C592.087219,140.511948 595.240356,139.635773 598.889893,141.197998 
z"/>
<path fill="#111111" opacity="1.000000" stroke="none" 
	d="
M498.688049,140.474197 
	C500.261200,141.602280 501.877777,142.395569 502.603760,143.688812 
	C504.466064,147.006470 502.991333,151.805328 499.837219,153.075348 
	C496.486481,154.424561 494.059448,153.042496 492.640442,149.889313 
	C490.940857,146.112625 492.278625,142.502945 495.936768,140.864212 
	C496.661835,140.539398 497.525848,140.524780 498.688049,140.474197 
z"/>
</svg>